<svg width="45" height="49" viewBox="0 0 45 49" fill="none" xmlns="http://www.w3.org/2000/svg">
<path d="M25 32.6C25 27.1 29.5 22.7 35 22.7H38.7C41.8 22.7 44.3 20.2 44.3 17.1H35C34.2 17.1 33.4 17.2 32.7 17.3C31 17.5 30.5 15.1 32.1 14.6C33 14.3 34 14.2 35 14.2H38.7C41.8 14.2 44.3 11.7 44.3 8.60001H35C34 8.60001 33.1 8.70001 32.2 8.90001C30.6 9.20001 29.9 6.9 31.5 6.3C32.6 5.9 33.8 5.60001 35.1 5.60001H38.7C41.8 5.60001 44.3 3.1 44.3 0H35.1C26.5 0 19.3 6.90001 19.4 15.4C19.5 21 15 25.5 9.4 25.5H5.9C2.8 25.5 0.3 28 0.3 31.1H9.3C10.3 31.1 11.2 31 12.1 30.8C13.7 30.5 14.4 32.8 12.8 33.4C11.7 33.8 10.5 34.1 9.2 34.1H5.7C2.6 34.1 0.0999994 36.6 0.0999994 39.7H9.1C9.9 39.7 10.7 39.6 11.4 39.5C13.1 39.3 13.6 41.7 12 42.2C11.1 42.5 10.1 42.6 9.1 42.6H5.6C2.5 42.6 0 45.1 0 48.2H9C18 48.2 25 41.2 25 32.6Z" fill="#BE123C"/>
</svg>
